<?xml version="1.0" encoding="iso-8859-1"?>
<!-- Uploaded to: SVG Repo, www.svgrepo.com, Generator: SVG Repo Mixer Tools -->
<svg fill="#000000" height="800px" width="800px" version="1.1" id="Layer_1" xmlns="http://www.w3.org/2000/svg" xmlns:xlink="http://www.w3.org/1999/xlink" 
	 viewBox="0 0 512 512" xml:space="preserve">
<g>
	<g>
		<path d="M501.491,288.032l-153.832-61.279c-1.212-1.157-2.453-2.283-3.707-3.395h151.364c9.214,0,16.684-7.47,16.684-16.684
			c0-9.214-7.47-16.684-16.684-16.684H324.755l70.97-28.271c6.346-2.527,10.51-8.668,10.51-15.5V22.422
			c0-9.214-7.47-16.684-16.684-16.684c-9.214,0-16.684,7.47-16.684,16.684v112.485l-39.875,15.884
			c2.624-44.588-32.952-81.709-76.991-81.709c-44.044,0-79.614,37.127-76.99,81.709l-39.875-15.884V22.422
			c0-9.214-7.47-16.684-16.684-16.684c-9.214,0-16.684,7.47-16.684,16.684v123.799c0,6.832,4.164,12.972,10.51,15.5l70.97,28.271
			H16.684C7.47,189.992,0,197.462,0,206.676c0,9.214,7.47,16.684,16.684,16.684h151.364c-1.255,1.111-2.495,2.238-3.707,3.395
			L10.509,288.032C4.163,290.56,0,296.7,0,303.531V406.22c0,9.214,7.47,16.684,16.684,16.684c9.214,0,16.684-7.47,16.684-16.684
			v-91.376l98.443-39.214c-4.296,11.258-7.102,23.243-8.179,35.718l-49.599,19.757c-6.347,2.528-10.51,8.668-10.51,15.5v142.973
			c0,9.214,7.47,16.684,16.684,16.684c9.214,0,16.684-7.47,16.684-16.684v-131.66l28.366-11.3
			C136.491,408.588,190.841,455.734,256,455.734c65.159,0,119.509-47.145,130.741-109.115l28.366,11.3v131.66
			c0,9.214,7.47,16.684,16.684,16.684c9.214,0,16.684-7.47,16.684-16.684V346.605c0-6.832-4.163-12.971-10.51-15.5l-49.599-19.757
			c-1.076-12.474-3.882-24.46-8.179-35.719l98.443,39.214v91.376c0,9.214,7.47,16.684,16.684,16.684
			c9.214,0,16.684-7.47,16.684-16.684V303.531C512,296.7,507.837,290.56,501.491,288.032z M256,102.451
			c24.134,0,43.77,19.635,43.77,43.77s-19.635,43.77-43.77,43.77s-43.77-19.635-43.77-43.77S231.866,102.451,256,102.451z
			 M256,422.365c-54.866,0-99.503-44.637-99.503-99.503S201.134,223.36,256,223.36s99.503,44.637,99.503,99.502
			C355.503,377.727,310.866,422.365,256,422.365z"/>
	</g>
</g>
</svg>